<?xml version="1.0" encoding="UTF-8" standalone="no"?>
<!DOCTYPE svg PUBLIC "-//W3C//DTD SVG 1.1//EN"
 "http://www.w3.org/Graphics/SVG/1.1/DTD/svg11.dtd">
<!-- Generated by graphviz version 2.43.0 (0)
 -->
<!-- Title: BasePCNModules Pages: 1 -->
<svg width="778pt" height="619pt"
 viewBox="0.00 0.00 778.00 619.00" xmlns="http://www.w3.org/2000/svg" xmlns:xlink="http://www.w3.org/1999/xlink">
<g id="graph0" class="graph" transform="scale(1 1) rotate(0) translate(4 615)">
<title>BasePCNModules</title>
<polygon fill="white" stroke="transparent" points="-4,4 -4,-615 774,-615 774,4 -4,4"/>
<g id="clust1" class="cluster">
<title>cluster_core</title>
<path fill="#e6f2ff" stroke="black" stroke-dasharray="5,2" d="M20,-8C20,-8 286,-8 286,-8 292,-8 298,-14 298,-20 298,-20 298,-591 298,-591 298,-597 292,-603 286,-603 286,-603 20,-603 20,-603 14,-603 8,-597 8,-591 8,-591 8,-20 8,-20 8,-14 14,-8 20,-8"/>
<text text-anchor="middle" x="153" y="-587.8" font-family="Times,serif" font-size="14.00">Core PCN Geometry</text>
</g>
<g id="clust2" class="cluster">
<title>cluster_evm</title>
<path fill="#e6ffe6" stroke="black" stroke-dasharray="5,2" d="M318,-8C318,-8 528,-8 528,-8 534,-8 540,-14 540,-20 540,-20 540,-361 540,-361 540,-367 534,-373 528,-373 528,-373 318,-373 318,-373 312,-373 306,-367 306,-361 306,-361 306,-20 306,-20 306,-14 312,-8 318,-8"/>
<text text-anchor="middle" x="423" y="-357.8" font-family="Times,serif" font-size="14.00">Base EVM Adapter</text>
</g>
<g id="clust3" class="cluster">
<title>cluster_security</title>
<path fill="#fff2e6" stroke="black" stroke-dasharray="5,2" d="M318,-381C318,-381 476,-381 476,-381 482,-381 488,-387 488,-393 488,-393 488,-516 488,-516 488,-522 482,-528 476,-528 476,-528 318,-528 318,-528 312,-528 306,-522 306,-516 306,-516 306,-393 306,-393 306,-387 312,-381 318,-381"/>
<text text-anchor="middle" x="397" y="-512.8" font-family="Times,serif" font-size="14.00">Security Infrastructure</text>
</g>
<g id="clust4" class="cluster">
<title>cluster_crypto</title>
<path fill="#f2e6ff" stroke="black" stroke-dasharray="5,2" d="M508,-453C508,-453 750,-453 750,-453 756,-453 762,-459 762,-465 762,-465 762,-516 762,-516 762,-522 756,-528 750,-528 750,-528 508,-528 508,-528 502,-528 496,-522 496,-516 496,-516 496,-465 496,-465 496,-459 502,-453 508,-453"/>
<text text-anchor="middle" x="629" y="-512.8" font-family="Times,serif" font-size="14.00">Post&#45;Quantum Crypto</text>
</g>
<!-- PCN_Basic -->
<g id="node1" class="node">
<title>PCN_Basic</title>
<path fill="#cce5ff" stroke="black" d="M275,-572C275,-572 245,-572 245,-572 239,-572 233,-566 233,-560 233,-560 233,-548 233,-548 233,-542 239,-536 245,-536 245,-536 275,-536 275,-536 281,-536 287,-542 287,-548 287,-548 287,-560 287,-560 287,-566 281,-572 275,-572"/>
<text text-anchor="middle" x="260" y="-550.3" font-family="Helvetica,sans-Serif" font-size="14.00">Basic</text>
</g>
<!-- PCN_Graph -->
<g id="node2" class="node">
<title>PCN_Graph</title>
<path fill="#cce5ff" stroke="black" d="M277.5,-497C277.5,-497 242.5,-497 242.5,-497 236.5,-497 230.5,-491 230.5,-485 230.5,-485 230.5,-473 230.5,-473 230.5,-467 236.5,-461 242.5,-461 242.5,-461 277.5,-461 277.5,-461 283.5,-461 289.5,-467 289.5,-473 289.5,-473 289.5,-485 289.5,-485 289.5,-491 283.5,-497 277.5,-497"/>
<text text-anchor="middle" x="260" y="-475.3" font-family="Helvetica,sans-Serif" font-size="14.00">Graph</text>
</g>
<!-- PCN_Basic&#45;&gt;PCN_Graph -->
<g id="edge1" class="edge">
<title>PCN_Basic&#45;&gt;PCN_Graph</title>
<path fill="none" stroke="#666666" d="M260,-535.7C260,-527.25 260,-516.87 260,-507.37"/>
<polygon fill="#666666" stroke="#666666" points="263.5,-507.18 260,-497.18 256.5,-507.18 263.5,-507.18"/>
</g>
<!-- PCN_Liquidity -->
<g id="node3" class="node">
<title>PCN_Liquidity</title>
<path fill="#cce5ff" stroke="black" d="M231,-425C231,-425 179,-425 179,-425 173,-425 167,-419 167,-413 167,-413 167,-401 167,-401 167,-395 173,-389 179,-389 179,-389 231,-389 231,-389 237,-389 243,-395 243,-401 243,-401 243,-413 243,-413 243,-419 237,-425 231,-425"/>
<text text-anchor="middle" x="205" y="-403.3" font-family="Helvetica,sans-Serif" font-size="14.00">Liquidity</text>
</g>
<!-- PCN_Graph&#45;&gt;PCN_Liquidity -->
<g id="edge2" class="edge">
<title>PCN_Graph&#45;&gt;PCN_Liquidity</title>
<path fill="none" stroke="#666666" d="M246.4,-460.7C239.88,-452.39 231.93,-442.28 224.75,-433.14"/>
<polygon fill="#666666" stroke="#666666" points="227.37,-430.81 218.44,-425.1 221.87,-435.13 227.37,-430.81"/>
</g>
<!-- EVM_Extractor -->
<g id="node13" class="node">
<title>EVM_Extractor</title>
<path fill="#ccffcc" stroke="black" d="M382,-198C382,-198 326,-198 326,-198 320,-198 314,-192 314,-186 314,-186 314,-174 314,-174 314,-168 320,-162 326,-162 326,-162 382,-162 382,-162 388,-162 394,-168 394,-174 394,-174 394,-186 394,-186 394,-192 388,-198 382,-198"/>
<text text-anchor="middle" x="354" y="-176.3" font-family="Helvetica,sans-Serif" font-size="14.00">Extractor</text>
</g>
<!-- PCN_Graph&#45;&gt;EVM_Extractor -->
<g id="edge15" class="edge">
<title>PCN_Graph&#45;&gt;EVM_Extractor</title>
<path fill="none" stroke="#666666" d="M261.42,-460.97C265.33,-420.11 278.5,-314 315,-234 319.41,-224.33 325.76,-214.7 332.06,-206.34"/>
<polygon fill="#666666" stroke="#666666" points="334.83,-208.48 338.28,-198.46 329.34,-204.15 334.83,-208.48"/>
</g>
<!-- SEC_PostQuantumHTLC -->
<g id="node18" class="node">
<title>SEC_PostQuantumHTLC</title>
<path fill="#ffcc99" stroke="black" d="M458.5,-425C458.5,-425 335.5,-425 335.5,-425 329.5,-425 323.5,-419 323.5,-413 323.5,-413 323.5,-401 323.5,-401 323.5,-395 329.5,-389 335.5,-389 335.5,-389 458.5,-389 458.5,-389 464.5,-389 470.5,-395 470.5,-401 470.5,-401 470.5,-413 470.5,-413 470.5,-419 464.5,-425 458.5,-425"/>
<text text-anchor="middle" x="397" y="-403.3" font-family="Helvetica,sans-Serif" font-size="14.00">PostQuantumHTLC</text>
</g>
<!-- PCN_Graph&#45;&gt;SEC_PostQuantumHTLC -->
<g id="edge23" class="edge">
<title>PCN_Graph&#45;&gt;SEC_PostQuantumHTLC</title>
<path fill="none" stroke="#666666" d="M287.8,-460.95C292.5,-458.22 297.36,-455.47 302,-453 317.2,-444.9 334.11,-436.65 349.4,-429.47"/>
<polygon fill="#666666" stroke="#666666" points="351.1,-432.54 358.69,-425.15 348.14,-426.2 351.1,-432.54"/>
</g>
<!-- PCN_Wealth -->
<g id="node4" class="node">
<title>PCN_Wealth</title>
<path fill="#cce5ff" stroke="black" d="M151,-342C151,-342 111,-342 111,-342 105,-342 99,-336 99,-330 99,-330 99,-318 99,-318 99,-312 105,-306 111,-306 111,-306 151,-306 151,-306 157,-306 163,-312 163,-318 163,-318 163,-330 163,-330 163,-336 157,-342 151,-342"/>
<text text-anchor="middle" x="131" y="-320.3" font-family="Helvetica,sans-Serif" font-size="14.00">Wealth</text>
</g>
<!-- PCN_Liquidity&#45;&gt;PCN_Wealth -->
<g id="edge3" class="edge">
<title>PCN_Liquidity&#45;&gt;PCN_Wealth</title>
<path fill="none" stroke="#666666" d="M189.31,-388.82C178.91,-377.44 165.1,-362.33 153.53,-349.66"/>
<polygon fill="#666666" stroke="#666666" points="156,-347.18 146.67,-342.15 150.83,-351.9 156,-347.18"/>
</g>
<!-- PCN_Rebalancing -->
<g id="node8" class="node">
<title>PCN_Rebalancing</title>
<path fill="#cce5ff" stroke="black" d="M243.5,-270C243.5,-270 166.5,-270 166.5,-270 160.5,-270 154.5,-264 154.5,-258 154.5,-258 154.5,-246 154.5,-246 154.5,-240 160.5,-234 166.5,-234 166.5,-234 243.5,-234 243.5,-234 249.5,-234 255.5,-240 255.5,-246 255.5,-246 255.5,-258 255.5,-258 255.5,-264 249.5,-270 243.5,-270"/>
<text text-anchor="middle" x="205" y="-248.3" font-family="Helvetica,sans-Serif" font-size="14.00">Rebalancing</text>
</g>
<!-- PCN_Liquidity&#45;&gt;PCN_Rebalancing -->
<g id="edge8" class="edge">
<title>PCN_Liquidity&#45;&gt;PCN_Rebalancing</title>
<path fill="none" stroke="#666666" d="M205,-388.75C205,-362.46 205,-312.13 205,-280.69"/>
<polygon fill="#666666" stroke="#666666" points="208.5,-280.43 205,-270.43 201.5,-280.43 208.5,-280.43"/>
</g>
<!-- PCN_Cuts -->
<g id="node5" class="node">
<title>PCN_Cuts</title>
<path fill="#cce5ff" stroke="black" d="M124,-270C124,-270 94,-270 94,-270 88,-270 82,-264 82,-258 82,-258 82,-246 82,-246 82,-240 88,-234 94,-234 94,-234 124,-234 124,-234 130,-234 136,-240 136,-246 136,-246 136,-258 136,-258 136,-264 130,-270 124,-270"/>
<text text-anchor="middle" x="109" y="-248.3" font-family="Helvetica,sans-Serif" font-size="14.00">Cuts</text>
</g>
<!-- PCN_Wealth&#45;&gt;PCN_Cuts -->
<g id="edge4" class="edge">
<title>PCN_Wealth&#45;&gt;PCN_Cuts</title>
<path fill="none" stroke="#666666" d="M125.56,-305.7C123.11,-297.9 120.16,-288.51 117.43,-279.83"/>
<polygon fill="#666666" stroke="#666666" points="120.71,-278.59 114.38,-270.1 114.04,-280.69 120.71,-278.59"/>
</g>
<!-- PCN_Wealth&#45;&gt;PCN_Rebalancing -->
<g id="edge9" class="edge">
<title>PCN_Wealth&#45;&gt;PCN_Rebalancing</title>
<path fill="none" stroke="#666666" d="M149.29,-305.7C158.43,-297.05 169.64,-286.45 179.6,-277.03"/>
<polygon fill="#666666" stroke="#666666" points="182.06,-279.52 186.92,-270.1 177.25,-274.43 182.06,-279.52"/>
</g>
<!-- PCN_Quotient -->
<g id="node9" class="node">
<title>PCN_Quotient</title>
<path fill="#cce5ff" stroke="black" d="M106.5,-52C106.5,-52 53.5,-52 53.5,-52 47.5,-52 41.5,-46 41.5,-40 41.5,-40 41.5,-28 41.5,-28 41.5,-22 47.5,-16 53.5,-16 53.5,-16 106.5,-16 106.5,-16 112.5,-16 118.5,-22 118.5,-28 118.5,-28 118.5,-40 118.5,-40 118.5,-46 112.5,-52 106.5,-52"/>
<text text-anchor="middle" x="80" y="-30.3" font-family="Helvetica,sans-Serif" font-size="14.00">Quotient</text>
</g>
<!-- PCN_Wealth&#45;&gt;PCN_Quotient -->
<g id="edge10" class="edge">
<title>PCN_Wealth&#45;&gt;PCN_Quotient</title>
<path fill="none" stroke="#666666" d="M108.83,-305.98C97.2,-296.29 83.27,-283.44 73,-270 51.15,-241.41 46.62,-232.38 36,-198 21.53,-151.13 8.23,-133.32 27,-88 31.54,-77.03 39.59,-67.14 48.05,-58.96"/>
<polygon fill="#666666" stroke="#666666" points="50.44,-61.53 55.52,-52.23 45.75,-56.33 50.44,-61.53"/>
</g>
<!-- PCN_AlgorithmicCuts -->
<g id="node6" class="node">
<title>PCN_AlgorithmicCuts</title>
<path fill="#cce5ff" stroke="black" d="M161,-198C161,-198 57,-198 57,-198 51,-198 45,-192 45,-186 45,-186 45,-174 45,-174 45,-168 51,-162 57,-162 57,-162 161,-162 161,-162 167,-162 173,-168 173,-174 173,-174 173,-186 173,-186 173,-192 167,-198 161,-198"/>
<text text-anchor="middle" x="109" y="-176.3" font-family="Helvetica,sans-Serif" font-size="14.00">AlgorithmicCuts</text>
</g>
<!-- PCN_Cuts&#45;&gt;PCN_AlgorithmicCuts -->
<g id="edge5" class="edge">
<title>PCN_Cuts&#45;&gt;PCN_AlgorithmicCuts</title>
<path fill="none" stroke="#666666" d="M109,-233.7C109,-225.98 109,-216.71 109,-208.11"/>
<polygon fill="#666666" stroke="#666666" points="112.5,-208.1 109,-198.1 105.5,-208.1 112.5,-208.1"/>
</g>
<!-- PCN_CutCompleteness -->
<g id="node7" class="node">
<title>PCN_CutCompleteness</title>
<path fill="#99ccff" stroke="black" stroke-width="3" d="M163.5,-126C163.5,-126 48.5,-126 48.5,-126 42.5,-126 36.5,-120 36.5,-114 36.5,-114 36.5,-100 36.5,-100 36.5,-94 42.5,-88 48.5,-88 48.5,-88 163.5,-88 163.5,-88 169.5,-88 175.5,-94 175.5,-100 175.5,-100 175.5,-114 175.5,-114 175.5,-120 169.5,-126 163.5,-126"/>
<text text-anchor="middle" x="106" y="-110.8" font-family="Helvetica,sans-Serif" font-size="14.00">CutCompleteness</text>
<text text-anchor="middle" x="106" y="-95.8" font-family="Helvetica,sans-Serif" font-size="14.00">(MAIN THEOREM)</text>
</g>
<!-- PCN_AlgorithmicCuts&#45;&gt;PCN_CutCompleteness -->
<g id="edge6" class="edge">
<title>PCN_AlgorithmicCuts&#45;&gt;PCN_CutCompleteness</title>
<path fill="none" stroke="#666666" d="M108.27,-161.81C107.95,-154.11 107.56,-144.82 107.19,-136.15"/>
<polygon fill="#666666" stroke="#666666" points="110.68,-135.86 106.76,-126.02 103.69,-136.16 110.68,-135.86"/>
</g>
<!-- PCN_Algorithmic -->
<g id="node10" class="node">
<title>PCN_Algorithmic</title>
<path fill="#cce5ff" stroke="black" d="M278,-125C278,-125 206,-125 206,-125 200,-125 194,-119 194,-113 194,-113 194,-101 194,-101 194,-95 200,-89 206,-89 206,-89 278,-89 278,-89 284,-89 290,-95 290,-101 290,-101 290,-113 290,-113 290,-119 284,-125 278,-125"/>
<text text-anchor="middle" x="242" y="-103.3" font-family="Helvetica,sans-Serif" font-size="14.00">Algorithmic</text>
</g>
<!-- PCN_AlgorithmicCuts&#45;&gt;PCN_Algorithmic -->
<g id="edge7" class="edge">
<title>PCN_AlgorithmicCuts&#45;&gt;PCN_Algorithmic</title>
<path fill="none" stroke="#666666" d="M140.86,-161.99C158.9,-152.36 181.67,-140.21 201.03,-129.87"/>
<polygon fill="#666666" stroke="#666666" points="202.77,-132.91 209.94,-125.11 199.47,-126.74 202.77,-132.91"/>
</g>
<!-- PCN_CutCompleteness&#45;&gt;PCN_Quotient -->
<g id="edge11" class="edge">
<title>PCN_CutCompleteness&#45;&gt;PCN_Quotient</title>
<path fill="none" stroke="#666666" d="M99.3,-87.72C96.37,-79.72 92.88,-70.18 89.68,-61.42"/>
<polygon fill="#666666" stroke="#666666" points="92.95,-60.19 86.23,-52 86.38,-62.6 92.95,-60.19"/>
</g>
<!-- EVM_SeamTheorem -->
<g id="node16" class="node">
<title>EVM_SeamTheorem</title>
<path fill="#99ff99" stroke="black" stroke-width="2" d="M430,-52C430,-52 338,-52 338,-52 332,-52 326,-46 326,-40 326,-40 326,-28 326,-28 326,-22 332,-16 338,-16 338,-16 430,-16 430,-16 436,-16 442,-22 442,-28 442,-28 442,-40 442,-40 442,-46 436,-52 430,-52"/>
<text text-anchor="middle" x="384" y="-30.3" font-family="Helvetica,sans-Serif" font-size="14.00">SeamTheorem</text>
</g>
<!-- PCN_CutCompleteness&#45;&gt;EVM_SeamTheorem -->
<g id="edge20" class="edge">
<title>PCN_CutCompleteness&#45;&gt;EVM_SeamTheorem</title>
<path fill="none" stroke="#666666" d="M175.79,-88.18C218.77,-77.2 273.59,-63.2 316.19,-52.32"/>
<polygon fill="#666666" stroke="#666666" points="317.09,-55.7 325.91,-49.84 315.36,-48.92 317.09,-55.7"/>
</g>
<!-- EVM_State -->
<g id="node11" class="node">
<title>EVM_State</title>
<path fill="#ccffcc" stroke="black" d="M519.5,-342C519.5,-342 402.5,-342 402.5,-342 396.5,-342 390.5,-336 390.5,-330 390.5,-330 390.5,-318 390.5,-318 390.5,-312 396.5,-306 402.5,-306 402.5,-306 519.5,-306 519.5,-306 525.5,-306 531.5,-312 531.5,-318 531.5,-318 531.5,-330 531.5,-330 531.5,-336 525.5,-342 519.5,-342"/>
<text text-anchor="middle" x="461" y="-320.3" font-family="Helvetica,sans-Serif" font-size="14.00">EVMAdapter.State</text>
</g>
<!-- EVM_FromEVMState -->
<g id="node12" class="node">
<title>EVM_FromEVMState</title>
<path fill="#ccffcc" stroke="black" d="M428.5,-270C428.5,-270 335.5,-270 335.5,-270 329.5,-270 323.5,-264 323.5,-258 323.5,-258 323.5,-246 323.5,-246 323.5,-240 329.5,-234 335.5,-234 335.5,-234 428.5,-234 428.5,-234 434.5,-234 440.5,-240 440.5,-246 440.5,-246 440.5,-258 440.5,-258 440.5,-264 434.5,-270 428.5,-270"/>
<text text-anchor="middle" x="382" y="-248.3" font-family="Helvetica,sans-Serif" font-size="14.00">FromEVMState</text>
</g>
<!-- EVM_State&#45;&gt;EVM_FromEVMState -->
<g id="edge13" class="edge">
<title>EVM_State&#45;&gt;EVM_FromEVMState</title>
<path fill="none" stroke="#666666" d="M441.47,-305.7C431.62,-296.97 419.51,-286.24 408.8,-276.75"/>
<polygon fill="#666666" stroke="#666666" points="411.11,-274.12 401.3,-270.1 406.47,-279.36 411.11,-274.12"/>
</g>
<!-- EVM_SettlementOps -->
<g id="node14" class="node">
<title>EVM_SettlementOps</title>
<path fill="#ccffcc" stroke="black" d="M520,-198C520,-198 424,-198 424,-198 418,-198 412,-192 412,-186 412,-186 412,-174 412,-174 412,-168 418,-162 424,-162 424,-162 520,-162 520,-162 526,-162 532,-168 532,-174 532,-174 532,-186 532,-186 532,-192 526,-198 520,-198"/>
<text text-anchor="middle" x="472" y="-176.3" font-family="Helvetica,sans-Serif" font-size="14.00">SettlementOps</text>
</g>
<!-- EVM_State&#45;&gt;EVM_SettlementOps -->
<g id="edge16" class="edge">
<title>EVM_State&#45;&gt;EVM_SettlementOps</title>
<path fill="none" stroke="#666666" d="M462.33,-305.87C464.2,-281.67 467.65,-237.21 469.88,-208.39"/>
<polygon fill="#666666" stroke="#666666" points="473.39,-208.43 470.67,-198.19 466.41,-207.89 473.39,-208.43"/>
</g>
<!-- EVM_FromEVMState&#45;&gt;EVM_Extractor -->
<g id="edge14" class="edge">
<title>EVM_FromEVMState&#45;&gt;EVM_Extractor</title>
<path fill="none" stroke="#666666" d="M375.08,-233.7C371.93,-225.81 368.12,-216.3 364.62,-207.55"/>
<polygon fill="#666666" stroke="#666666" points="367.81,-206.09 360.84,-198.1 361.31,-208.69 367.81,-206.09"/>
</g>
<!-- EVM_SettlementSemantics -->
<g id="node15" class="node">
<title>EVM_SettlementSemantics</title>
<path fill="#ccffcc" stroke="black" d="M466,-125C466,-125 326,-125 326,-125 320,-125 314,-119 314,-113 314,-113 314,-101 314,-101 314,-95 320,-89 326,-89 326,-89 466,-89 466,-89 472,-89 478,-95 478,-101 478,-101 478,-113 478,-113 478,-119 472,-125 466,-125"/>
<text text-anchor="middle" x="396" y="-103.3" font-family="Helvetica,sans-Serif" font-size="14.00">SettlementSemantics</text>
</g>
<!-- EVM_Extractor&#45;&gt;EVM_SettlementSemantics -->
<g id="edge18" class="edge">
<title>EVM_Extractor&#45;&gt;EVM_SettlementSemantics</title>
<path fill="none" stroke="#666666" d="M364.17,-161.81C369.12,-153.44 375.18,-143.2 380.68,-133.9"/>
<polygon fill="#666666" stroke="#666666" points="383.85,-135.42 385.93,-125.03 377.82,-131.85 383.85,-135.42"/>
</g>
<!-- EVM_SettlementOps&#45;&gt;EVM_SettlementSemantics -->
<g id="edge17" class="edge">
<title>EVM_SettlementOps&#45;&gt;EVM_SettlementSemantics</title>
<path fill="none" stroke="#666666" d="M453.6,-161.81C443.99,-152.83 432.07,-141.69 421.57,-131.89"/>
<polygon fill="#666666" stroke="#666666" points="423.92,-129.3 414.23,-125.03 419.15,-134.41 423.92,-129.3"/>
</g>
<!-- EVM_SettlementSemantics&#45;&gt;EVM_SeamTheorem -->
<g id="edge19" class="edge">
<title>EVM_SettlementSemantics&#45;&gt;EVM_SeamTheorem</title>
<path fill="none" stroke="#666666" d="M393.1,-88.81C391.74,-80.79 390.09,-71.05 388.58,-62.07"/>
<polygon fill="#666666" stroke="#666666" points="392,-61.31 386.88,-52.03 385.09,-62.47 392,-61.31"/>
</g>
<!-- SEC_MessageModelSeq -->
<g id="node17" class="node">
<title>SEC_MessageModelSeq</title>
<path fill="#ffcc99" stroke="black" d="M457.5,-497C457.5,-497 336.5,-497 336.5,-497 330.5,-497 324.5,-491 324.5,-485 324.5,-485 324.5,-473 324.5,-473 324.5,-467 330.5,-461 336.5,-461 336.5,-461 457.5,-461 457.5,-461 463.5,-461 469.5,-467 469.5,-473 469.5,-473 469.5,-485 469.5,-485 469.5,-491 463.5,-497 457.5,-497"/>
<text text-anchor="middle" x="397" y="-475.3" font-family="Helvetica,sans-Serif" font-size="14.00">MessageModelSeq</text>
</g>
<!-- SEC_MessageModelSeq&#45;&gt;SEC_PostQuantumHTLC -->
<g id="edge21" class="edge">
<title>SEC_MessageModelSeq&#45;&gt;SEC_PostQuantumHTLC</title>
<path fill="none" stroke="#666666" d="M397,-460.7C397,-452.98 397,-443.71 397,-435.11"/>
<polygon fill="#666666" stroke="#666666" points="400.5,-435.1 397,-425.1 393.5,-435.1 400.5,-435.1"/>
</g>
<!-- CRYPTO_XMSS -->
<g id="node19" class="node">
<title>CRYPTO_XMSS</title>
<path fill="#d9b3ff" stroke="black" d="M742,-497C742,-497 710,-497 710,-497 704,-497 698,-491 698,-485 698,-485 698,-473 698,-473 698,-467 704,-461 710,-461 710,-461 742,-461 742,-461 748,-461 754,-467 754,-473 754,-473 754,-485 754,-485 754,-491 748,-497 742,-497"/>
<text text-anchor="middle" x="726" y="-475.3" font-family="Helvetica,sans-Serif" font-size="14.00">XMSS</text>
</g>
<!-- CRYPTO_XMSS&#45;&gt;SEC_PostQuantumHTLC -->
<g id="edge22" class="edge">
<title>CRYPTO_XMSS&#45;&gt;SEC_PostQuantumHTLC</title>
<path fill="none" stroke="#666666" d="M704.21,-460.92C699.42,-457.85 694.21,-455 689,-453 604.79,-420.69 577.02,-439.51 488,-425 485.66,-424.62 483.28,-424.22 480.89,-423.82"/>
<polygon fill="#666666" stroke="#666666" points="481.4,-420.36 470.95,-422.11 480.21,-427.26 481.4,-420.36"/>
</g>
<!-- CRYPTO_IncomparableEncoding -->
<g id="node20" class="node">
<title>CRYPTO_IncomparableEncoding</title>
<path fill="#d9b3ff" stroke="black" d="M668,-497C668,-497 516,-497 516,-497 510,-497 504,-491 504,-485 504,-485 504,-473 504,-473 504,-467 510,-461 516,-461 516,-461 668,-461 668,-461 674,-461 680,-467 680,-473 680,-473 680,-485 680,-485 680,-491 674,-497 668,-497"/>
<text text-anchor="middle" x="592" y="-475.3" font-family="Helvetica,sans-Serif" font-size="14.00">IncomparableEncoding</text>
</g>
<!-- ContractsModel -->
<g id="node21" class="node">
<title>ContractsModel</title>
<path fill="#f0f0f0" stroke="black" d="M613.5,-425C613.5,-425 508.5,-425 508.5,-425 502.5,-425 496.5,-419 496.5,-413 496.5,-413 496.5,-401 496.5,-401 496.5,-395 502.5,-389 508.5,-389 508.5,-389 613.5,-389 613.5,-389 619.5,-389 625.5,-395 625.5,-401 625.5,-401 625.5,-413 625.5,-413 625.5,-419 619.5,-425 613.5,-425"/>
<text text-anchor="middle" x="561" y="-403.3" font-family="Helvetica,sans-Serif" font-size="14.00">Contracts.Model</text>
</g>
<!-- ContractsModel&#45;&gt;EVM_State -->
<g id="edge12" class="edge">
<title>ContractsModel&#45;&gt;EVM_State</title>
<path fill="none" stroke="#666666" d="M539.79,-388.82C525.34,-377.12 506.02,-361.47 490.13,-348.6"/>
<polygon fill="#666666" stroke="#666666" points="492.15,-345.73 482.18,-342.15 487.74,-351.17 492.15,-345.73"/>
</g>
</g>
</svg>
